<svg viewBox="0 0 96 96" xmlns="http://www.w3.org/2000/svg" xmlns:xlink="http://www.w3.org/1999/xlink" id="Icons_BadgeCopyright" overflow="hidden"><path d="M48.025 10C27.0492 9.99724 10.0428 26.9992 10.04 47.975 10.0372 68.9508 27.0392 85.9572 48.015 85.96 68.9908 85.9628 85.9972 68.9608 86 47.985 86 47.983 86 47.981 86 47.979 86.0094 27.0132 69.0208 10.0094 48.055 10 48.045 10 48.035 10 48.025 10ZM71.143 54.356C70.5885 56.3601 69.7757 58.2836 68.725 60.078 66.6351 63.6284 63.6754 66.5881 60.125 68.678 58.3298 69.7302 56.4053 70.5444 54.4 71.1 50.2247 72.2373 45.8213 72.2373 41.646 71.1 33.5123 68.8484 27.1572 62.4929 24.906 54.359 23.7673 50.1836 23.7673 45.7794 24.906 41.604 27.1591 33.4699 33.5142 27.1141 41.648 24.86 47.8805 23.1369 54.5451 24.0095 60.124 27.279 65.521 30.4365 69.474 35.5741 71.143 41.6 72.2817 45.7754 72.2817 50.1796 71.143 54.355Z"/><path d="M65.618 37.692C63.8478 34.6711 61.3319 32.1552 58.311 30.385 56.7838 29.4966 55.1492 28.8073 53.447 28.334 49.8977 27.3593 46.1513 27.3593 42.602 28.334 40.9001 28.8072 39.2658 29.4965 37.739 30.385 34.7181 32.1555 32.202 34.6714 30.431 37.692 29.5433 39.2191 28.8544 40.8533 28.381 42.555 27.405 46.1048 27.405 49.8522 28.381 53.402 28.8544 55.1037 29.5433 56.7379 30.431 58.265 32.202 61.2856 34.7181 63.8015 37.739 65.572 39.2651 66.4604 40.8988 67.1496 42.6 67.623 46.1493 68.5977 49.8957 68.5977 53.445 67.623 55.1472 67.1497 56.7818 66.4604 58.309 65.572 61.3302 63.8018 63.8462 61.2854 65.616 58.264 66.5051 56.7369 67.1951 55.1023 67.669 53.4 68.6437 49.8504 68.6437 46.1036 67.669 42.554 67.1954 40.8525 66.5061 39.2186 65.618 37.692ZM54.579 41.02C53.8639 40.5838 53.0891 40.254 52.279 40.041 51.4662 39.8277 50.6293 39.7205 49.789 39.722 48.6731 39.7048 47.5653 39.9147 46.533 40.339 45.6052 40.7242 44.7707 41.3039 44.086 42.039 43.4036 42.7889 42.8789 43.6683 42.543 44.625 41.8389 46.6919 41.8203 48.9307 42.49 51.009 42.7936 51.9133 43.2789 52.746 43.916 53.456 44.555 54.1545 45.3403 54.7033 46.216 55.063 47.2027 55.4607 48.2593 55.6559 49.323 55.637 50.2444 55.6388 51.1625 55.528 52.057 55.307 52.9524 55.0837 53.8046 54.7137 54.579 54.212L54.579 57.489C53.6519 57.954 52.6628 58.2834 51.642 58.467 50.624 58.6515 49.5916 58.7442 48.557 58.744 47.0898 58.7669 45.6325 58.4994 44.269 57.957 43.0453 57.4644 41.9419 56.714 41.034 55.757 40.1297 54.7841 39.4343 53.6361 38.991 52.384 38.5033 51.0035 38.2622 49.548 38.279 48.084 38.2628 46.5193 38.534 44.9648 39.079 43.498 39.58 42.1498 40.3469 40.9161 41.334 39.87 42.3245 38.8357 43.5204 38.0203 44.845 37.476 46.3006 36.8846 47.86 36.5914 49.431 36.614 50.3101 36.6138 51.1882 36.6743 52.059 36.795 52.9263 36.9142 53.7743 37.1469 54.581 37.487Z"/></svg>